<svg xmlns="http://www.w3.org/2000/svg" viewBox="0 0 700 240" width="100%"><text x="350" y="20" text-anchor="middle" font-family="Playfair Display,serif" font-size="14" font-weight="700" fill="#3D2B1F">Fırın Tipi Karşılaştırması</text><g transform="translate(30,40)"><rect x="0" y="140" width="180" height="10" fill="#B0A898" rx="2"></rect><rect x="20" y="130" width="140" height="10" fill="#C2703E"></rect><path d="M 30 130 Q 30 50 90 38 Q 150 50 150 130" fill="#C2703E" opacity="0.8" stroke="#A05030" stroke-width="1.5"></path><path d="M 40 130 Q 40 65 90 55 Q 140 65 140 130" fill="#3D2B1F" opacity="0.12"></path><rect x="28" y="20" width="16" height="35" fill="#C2703E" stroke="#A05030"></rect><path d="M 70,110 Q 60,85 90,70" fill="none" stroke="#FF6B35" stroke-width="1.5" opacity="0.5"></path><path d="M 110,110 Q 120,85 90,70" fill="none" stroke="#FF6B35" stroke-width="1.5" opacity="0.5"></path><text x="90" y="170" text-anchor="middle" font-size="12" font-weight="700" fill="#3D2B1F" font-family="Playfair Display,serif">Pompeii</text><text x="90" y="184" text-anchor="middle" font-size="9" fill="#7BA37B">✓ 350°C · Pizza · Ekmek · Tandır</text><text x="90" y="196" text-anchor="middle" font-size="8" fill="#C2703E">Yarım küre kubbe</text></g><g transform="translate(260,40)"><rect x="0" y="140" width="180" height="10" fill="#B0A898" rx="2"></rect><rect x="20" y="130" width="140" height="10" fill="#C2703E"></rect><rect x="30" y="75" width="120" height="55" fill="#C2703E" opacity="0.8" stroke="#A05030" stroke-width="1.5" rx="0"></rect><path d="M 30 75 Q 90 45 150 75" fill="#C2703E" stroke="#A05030" stroke-width="1.5"></path><rect x="40" y="85" width="100" height="45" fill="#3D2B1F" opacity="0.12" rx="2"></rect><rect x="136" y="40" width="16" height="40" fill="#C2703E" stroke="#A05030"></rect><text x="90" y="170" text-anchor="middle" font-size="12" font-weight="700" fill="#3D2B1F" font-family="Playfair Display,serif">Masonry (Varil)</text><text x="90" y="184" text-anchor="middle" font-size="9" fill="#8B7355">~250°C · Ekmek · Güveç</text><text x="90" y="196" text-anchor="middle" font-size="8" fill="#C2703E">Tünel kubbe</text></g><g transform="translate(490,40)"><rect x="0" y="140" width="180" height="10" fill="#B0A898" rx="2"></rect><rect x="20" y="130" width="140" height="10" fill="#A08060"></rect><path d="M 40 130 Q 35 55 90 42 Q 145 55 140 130" fill="#B09070" stroke="#8B7355" stroke-width="1.5"></path><path d="M 50 130 Q 48 70 90 60 Q 132 70 130 130" fill="#3D2B1F" opacity="0.1"></path><path d="M 40 105 L 25 95" stroke="#999" stroke-width="1" stroke-dasharray="3,2"></path><text x="12" y="90" font-size="8" fill="#8B7355">Duman</text><text x="90" y="170" text-anchor="middle" font-size="12" font-weight="700" fill="#3D2B1F" font-family="Playfair Display,serif">Kerpiç / Geleneksel</text><text x="90" y="184" text-anchor="middle" font-size="9" fill="#8B7355">~200°C · Köy Ekmeği</text><text x="90" y="196" text-anchor="middle" font-size="8" fill="#C2703E">Toprak+saman, bacasız</text></g></svg>